<?xml version="1.0" encoding="utf-8"?>
<!-- Generator: Adobe Illustrator 27.4.1, SVG Export Plug-In . SVG Version: 6.00 Build 0)  -->
<svg version="1.1" xmlns="http://www.w3.org/2000/svg" xmlns:xlink="http://www.w3.org/1999/xlink" x="0px" y="0px"
	 viewBox="0 0 64 64" style="enable-background:new 0 0 64 64;" xml:space="preserve">
<style type="text/css">
	.st0{clip-path:url(#SVGID_00000060753259023136864340000002782110940793716398_);fill:#843AB4;}
	.st1{fill:#3A1063;}
	.st2{clip-path:url(#SVGID_00000018195625788247327320000009530109179377798793_);}
	.st3{fill:#843AB4;}
	
		.st4{clip-path:url(#SVGID_00000156584035086059078230000014286189713730793900_);fill:url(#SVGID_00000143596431079973614420000000476626357509842334_);}
	.st5{clip-path:url(#SVGID_00000127023050673425321900000014534310717173144473_);}
	.st6{fill:#6922A0;}
	.st7{fill:url(#SVGID_00000062189877782424310420000011053330161877432756_);}
</style>
<g id="Layer_5">
	<g>
		<g>
			<defs>
				<path id="SVGID_1_" d="M57.7,29.5L40.5,46.8L57.7,64H38L20.8,46.8L38,29.5H57.7z M38,0L6,32l9.8,9.8L57.7,0C57.7,0,38,0,38,0z"
					/>
			</defs>
			<clipPath id="SVGID_00000130618598916576121450000018136916830718281896_">
				<use xlink:href="#SVGID_1_"  style="overflow:visible;"/>
			</clipPath>
		</g>
		<g>
			<defs>
				<path id="SVGID_00000104669413785878629150000013455259669495723670_" d="M57.7,29.5L40.5,46.8L57.7,64H38L20.8,46.8L38,29.5
					H57.7z M38,0L6,32l9.8,9.8L57.7,0C57.7,0,38,0,38,0z"/>
			</defs>
			<use xlink:href="#SVGID_00000104669413785878629150000013455259669495723670_"  style="overflow:visible;fill:#843AB4;"/>
			<clipPath id="SVGID_00000061466440639479507300000002524218425469235342_">
				<use xlink:href="#SVGID_00000104669413785878629150000013455259669495723670_"  style="overflow:visible;"/>
			</clipPath>
			<path style="clip-path:url(#SVGID_00000061466440639479507300000002524218425469235342_);fill:#843AB4;" d="M38,0h19.7L15.8,41.8
				L6,32L38,0z"/>
		</g>
		<g>
			<defs>
				<path id="SVGID_00000111898565030994116110000004502138208033353897_" d="M57.7,29.5L40.5,46.8L57.7,64H38L20.8,46.8L38,29.5
					H57.7z M38,0L6,32l9.8,9.8L57.7,0C57.7,0,38,0,38,0z"/>
			</defs>
			<clipPath id="SVGID_00000030463844445107471340000000048429031432341150_">
				<use xlink:href="#SVGID_00000111898565030994116110000004502138208033353897_"  style="overflow:visible;"/>
			</clipPath>
		</g>
	</g>
</g>
<g id="Layer_3">
	<polygon class="st1" points="38,29.5 20.8,46.8 38,64 57.7,64 57.7,64 57.7,64 40.5,46.8 57.7,29.5 	"/>
</g>
<g id="Layer_6">
	<g>
		<defs>
			<path id="SVGID_00000074421451117724794800000006655904207873758084_" d="M57.7,29.5L40.5,46.8L57.7,64H38L20.8,46.8L38,29.5
				H57.7z M38,0L6,32l9.8,9.8L57.7,0C57.7,0,38,0,38,0z"/>
		</defs>
		<clipPath id="SVGID_00000019666323753201582730000015355140929817440924_">
			<use xlink:href="#SVGID_00000074421451117724794800000006655904207873758084_"  style="overflow:visible;"/>
		</clipPath>
		<g style="clip-path:url(#SVGID_00000019666323753201582730000015355140929817440924_);">
			<path class="st3" d="M20.8,46.8l9.8,9.8l27.1-27.1H38L20.8,46.8z"/>
		</g>
	</g>
	<g>
		<defs>
			<path id="SVGID_00000123430195613540273770000014045307648650523811_" d="M57.7,29.5L40.5,46.8L57.7,64H38L20.8,46.8L38,29.5
				H57.7z M38,0L6,32l9.8,9.8L57.7,0C57.7,0,38,0,38,0z"/>
		</defs>
		<clipPath id="SVGID_00000075121174172418616750000018201254305690211475_">
			<use xlink:href="#SVGID_00000123430195613540273770000014045307648650523811_"  style="overflow:visible;"/>
		</clipPath>
		
			<linearGradient id="SVGID_00000125574328857381611880000007115371215129150633_" gradientUnits="userSpaceOnUse" x1="3871.4927" y1="-2305.4734" x2="3990.5076" y2="-2186.4585" gradientTransform="matrix(6.161500e-02 0 0 -6.161500e-02 -205.0604 -83.5402)">
			<stop  offset="0" style="stop-color:#1A237E;stop-opacity:0.4"/>
			<stop  offset="1" style="stop-color:#1A237E;stop-opacity:0"/>
		</linearGradient>
		
			<path style="clip-path:url(#SVGID_00000075121174172418616750000018201254305690211475_);fill:url(#SVGID_00000125574328857381611880000007115371215129150633_);" d="
			M45.2,51.6l-4.8-4.8l-9.8,9.8L45.2,51.6z"/>
	</g>
</g>
<g id="Layer_4">
	<g>
		<defs>
			<path id="SVGID_00000112607710300065552520000000538465996623253137_" d="M57.7,29.5L40.4,46.8L57.7,64H38L20.8,46.8L38,29.5
				H57.7z M38,0L6,32l9.8,9.8L57.7,0C57.7,0,38,0,38,0z"/>
		</defs>
		<clipPath id="SVGID_00000052105514067839380820000008523511788975296899_">
			<use xlink:href="#SVGID_00000112607710300065552520000000538465996623253137_"  style="overflow:visible;"/>
		</clipPath>
		<g style="clip-path:url(#SVGID_00000052105514067839380820000008523511788975296899_);">
			<path class="st6" d="M20.8,46.8l9.8-9.8l9.8,9.8l-9.8,9.8L20.8,46.8z"/>
		</g>
	</g>
</g>
<g id="Layer_7">
	
		<radialGradient id="SVGID_00000088110395110700065120000013494350183480510887_" cx="21681.959" cy="8986.5645" r="5082.8892" gradientTransform="matrix(1.540375e-02 0 0 1.540375e-02 -326.7346 -134.0645)" gradientUnits="userSpaceOnUse">
		<stop  offset="0" style="stop-color:#FFFFFF;stop-opacity:0.1"/>
		<stop  offset="1" style="stop-color:#FFFFFF;stop-opacity:0"/>
	</radialGradient>
	<path style="fill:url(#SVGID_00000088110395110700065120000013494350183480510887_);" d="M57.5,29.5L40.3,46.8L57.5,64H37.8
		L20.6,46.8l17.2-17.2H57.5z M37.8,0l-32,32l9.8,9.8L57.5,0C57.5,0,37.8,0,37.8,0z"/>
</g>
</svg>
